<svg width="108" height="118" viewBox="0 0 108 118" fill="none" xmlns="http://www.w3.org/2000/svg">
<rect x="108" y="95" width="23" height="21" transform="rotate(90 108 95)" fill="#41C02C"/>
<rect x="105" y="20" width="75" height="15" transform="rotate(90 105 20)" fill="#41C02C"/>
<rect x="105" y="107" width="5" height="5" transform="rotate(90 105 107)" fill="#D9E9D6"/>
<rect x="95" y="107" width="5" height="5" transform="rotate(90 95 107)" fill="#D9E9D6"/>
<rect x="93" y="109" width="2" height="2" transform="rotate(90 93 109)" fill="black"/>
<rect x="103" y="109" width="2" height="2" transform="rotate(90 103 109)" fill="black"/>
<rect x="90" y="20" width="15" height="90" transform="rotate(90 90 20)" fill="#41C02C"/>
<rect width="125" height="15" transform="matrix(4.37114e-08 -1 -1 -4.37114e-08 15 20)" fill="#41C02C"/>
</svg>
